# xmcd
#
# Track frame offsets:
#	180
#	16193
#	33003
#	52871
#	72252
#	92135
#	112547
#	129789
#	138172
#	158528
#	181185
#	199001
#	219503
#	238275
#	251777
#	271552
#
# Disc length: 3931
#
# Revision: 1
# Processed by: cddbd v1.5.1PL0 Copyright (c) Steve Scherf et al.
# Submitted via: CDex 1.51
# Normalized: r0:TRMNUM
#
DISCID=c10f5910
DTITLE=Matisse - Jazz
DYEAR=1900
DGENRE=Jazz
TTITLE0=Du hast ja recht
TTITLE1=Ich warte hier auf dich
TTITLE2=Aber ohne mich
TTITLE3=Euer Gast
TTITLE4=Tauschgeschäft
TTITLE5=Der unerwünschte Kuss
TTITLE6=Alles für die Katz
TTITLE7=Harmonie
TTITLE8=Yorga
TTITLE9=Die zappen einfach weiter
TTITLE10=Du tust mir gut
TTITLE11=Mit auf dein Raumschiff
TTITLE12=Ich glaube
TTITLE13=Kleider machen Leute
TTITLE14=Frühlingszeit
TTITLE15=Ne große Sauerei
EXTD=
EXTT0=
EXTT1=
EXTT2=
EXTT3=
EXTT4=
EXTT5=
EXTT6=
EXTT7=
EXTT8=
EXTT9=
EXTT10=
EXTT11=
EXTT12=
EXTT13=
EXTT14=
EXTT15=
PLAYORDER=
